<svg xmlns="http://www.w3.org/2000/svg" xmlns:xlink="http://www.w3.org/1999/xlink" width="500" zoomAndPan="magnify" viewBox="0 0 375 374.999991" height="500" preserveAspectRatio="xMidYMid meet" version="1.0"><defs><g/><clipPath id="2379aa696d"><path d="M 0 53.570312 L 176 53.570312 L 176 268.820312 L 0 268.820312 Z M 0 53.570312 " clip-rule="nonzero"/></clipPath><clipPath id="1f0639511f"><path d="M 166 53.570312 L 375 53.570312 L 375 268.820312 L 166 268.820312 Z M 166 53.570312 " clip-rule="nonzero"/></clipPath></defs><g clip-path="url(#2379aa696d)"><path fill="#ffffff" d="M 173.183594 113.917969 C 163.261719 144.855469 151.355469 178.695312 137.527344 215.375 C 116.980469 168.433594 75.832031 91.625 75.832031 63.710938 C 81.144531 60.226562 86.761719 58.488281 92.710938 58.488281 L 92.710938 53.875 L 0.640625 53.875 L 0.640625 58.488281 C 12.089844 58.488281 21.339844 64.535156 28.421875 76.597656 C 43.992188 103.261719 37.457031 146.78125 39.015625 192.042969 C 39.015625 208.015625 37.152344 221.421875 33.488281 232.261719 C 29.796875 243.105469 25.035156 251.136719 19.203125 256.359375 C 13.371094 261.582031 7.175781 264.207031 0.640625 264.207031 L 0.640625 268.789062 L 92.710938 268.789062 L 92.710938 264.207031 C 86.148438 264.207031 79.984375 261.582031 74.152344 256.359375 C 68.320312 251.136719 63.558594 243.105469 59.867188 232.261719 C 56.203125 221.421875 54.339844 208.015625 54.339844 192.042969 C 54.429688 134.777344 54.15625 124.242188 54.644531 117.125 C 75.097656 155.210938 95.886719 205.753906 116.953125 268.789062 L 132.308594 268.789062 C 148.089844 219.957031 162.4375 178.296875 175.410156 143.847656 C 175.042969 134.167969 174.34375 124.148438 173.183594 113.917969 Z M 173.183594 113.917969 " fill-opacity="1" fill-rule="nonzero"/></g><g clip-path="url(#1f0639511f)"><path fill="#ffffff" d="M 166.285156 264.207031 C 185.667969 264.207031 198.734375 171.824219 185.453125 90.953125 C 181.882812 69.117188 175.472656 58.210938 166.285156 58.210938 L 166.285156 53.570312 L 258.355469 53.570312 L 258.355469 58.183594 C 249.132812 58.183594 242.753906 69.085938 239.183594 90.921875 C 235.609375 112.757812 233.808594 133.617188 233.808594 153.5 C 234.085938 163.546875 232.589844 179.824219 237.199219 212.535156 L 278.320312 130.441406 C 289.15625 108.726562 294.589844 91.378906 294.589844 78.460938 C 294.589844 71.894531 293.15625 66.886719 290.285156 63.40625 C 287.414062 59.921875 283.324219 58.183594 278.011719 58.183594 L 278.011719 53.570312 L 370.082031 53.570312 L 370.082031 58.183594 C 341.90625 58.183594 308.601562 100.054688 293.675781 130.441406 L 291.84375 134.441406 L 309.027344 168.890625 L 313.027344 176.894531 C 327.132812 205.171875 338.976562 226.796875 348.46875 241.761719 C 357.996094 256.726562 366.632812 264.207031 374.417969 264.207031 L 374.417969 268.820312 L 282.289062 268.820312 L 282.289062 264.207031 C 287.203125 264.207031 289.644531 260.820312 289.644531 254.070312 C 289.644531 248.328125 288.148438 240.507812 285.1875 230.554688 C 282.226562 220.628906 277.675781 207.25 271.542969 190.421875 L 268.152344 181.199219 L 241.167969 234.980469 C 245.867188 254.464844 251.605469 264.179688 258.355469 264.179688 L 258.355469 268.789062 L 166.285156 268.789062 Z M 166.285156 264.207031 " fill-opacity="1" fill-rule="nonzero"/></g><g fill="#ffffff" fill-opacity="1"><g transform="translate(2.167973, 310.081943)"><g><path d="M 35.515625 -30.59375 L 35.515625 0 L 30.5 0 L 30.5 -20.953125 L 21.171875 0 L 17.6875 0 L 8.3125 -20.953125 L 8.3125 0 L 3.296875 0 L 3.296875 -30.59375 L 8.71875 -30.59375 L 19.453125 -6.609375 L 30.15625 -30.59375 Z M 35.515625 -30.59375 "/></g></g></g><g fill="#ffffff" fill-opacity="1"><g transform="translate(40.989717, 310.081943)"><g><path d="M 21.75 -6.25 L 8.9375 -6.25 L 6.734375 0 L 1.5 0 L 12.453125 -30.640625 L 18.265625 -30.640625 L 29.21875 0 L 23.9375 0 Z M 20.328125 -10.34375 L 15.359375 -24.5625 L 10.34375 -10.34375 Z M 20.328125 -10.34375 "/></g></g></g><g fill="#ffffff" fill-opacity="1"><g transform="translate(71.668579, 310.081943)"><g><path d="M 28.4375 0 L 23.421875 0 L 8.3125 -22.84375 L 8.3125 0 L 3.296875 0 L 3.296875 -30.640625 L 8.3125 -30.640625 L 23.421875 -7.828125 L 23.421875 -30.640625 L 28.4375 -30.640625 Z M 28.4375 0 "/></g></g></g><g fill="#ffffff" fill-opacity="1"><g transform="translate(103.403809, 310.081943)"><g><path d="M 21.75 -6.25 L 8.9375 -6.25 L 6.734375 0 L 1.5 0 L 12.453125 -30.640625 L 18.265625 -30.640625 L 29.21875 0 L 23.9375 0 Z M 20.328125 -10.34375 L 15.359375 -24.5625 L 10.34375 -10.34375 Z M 20.328125 -10.34375 "/></g></g></g><g fill="#ffffff" fill-opacity="1"><g transform="translate(134.082671, 310.081943)"><g><path d="M 29.671875 -30.59375 L 18.171875 0 L 12.375 0 L 0.84375 -30.59375 L 6.203125 -30.59375 L 15.265625 -5.15625 L 24.390625 -30.59375 Z M 29.671875 -30.59375 "/></g></g></g><g fill="#ffffff" fill-opacity="1"><g transform="translate(164.62949, 310.081943)"><g/></g></g><g fill="#ffffff" fill-opacity="1"><g transform="translate(176.073547, 310.081943)"><g><path d="M 20.15625 0 L 8.3125 -13.6875 L 8.3125 0 L 3.296875 0 L 3.296875 -30.59375 L 8.3125 -30.59375 L 8.3125 -16.640625 L 20.203125 -30.59375 L 26.5 -30.59375 L 13.203125 -15.265625 L 26.71875 0 Z M 20.15625 0 "/></g></g></g><g fill="#ffffff" fill-opacity="1"><g transform="translate(203.935399, 310.081943)"><g><path d="M 21.75 -6.25 L 8.9375 -6.25 L 6.734375 0 L 1.5 0 L 12.453125 -30.640625 L 18.265625 -30.640625 L 29.21875 0 L 23.9375 0 Z M 20.328125 -10.34375 L 15.359375 -24.5625 L 10.34375 -10.34375 Z M 20.328125 -10.34375 "/></g></g></g><g fill="#ffffff" fill-opacity="1"><g transform="translate(234.61426, 310.081943)"><g><path d="M 8.28125 -30.59375 L 8.28125 -11.09375 C 8.28125 -8.769531 8.882812 -7.019531 10.09375 -5.84375 C 11.3125 -4.675781 13.007812 -4.09375 15.1875 -4.09375 C 17.382812 -4.09375 19.09375 -4.675781 20.3125 -5.84375 C 21.53125 -7.019531 22.140625 -8.769531 22.140625 -11.09375 L 22.140625 -30.59375 L 27.15625 -30.59375 L 27.15625 -11.1875 C 27.15625 -8.6875 26.613281 -6.570312 25.53125 -4.84375 C 24.445312 -3.113281 22.992188 -1.820312 21.171875 -0.96875 C 19.347656 -0.113281 17.335938 0.3125 15.140625 0.3125 C 12.941406 0.3125 10.9375 -0.113281 9.125 -0.96875 C 7.320312 -1.820312 5.890625 -3.113281 4.828125 -4.84375 C 3.773438 -6.570312 3.25 -8.6875 3.25 -11.1875 L 3.25 -30.59375 Z M 8.28125 -30.59375 "/></g></g></g><g fill="#ffffff" fill-opacity="1"><g transform="translate(264.985001, 310.081943)"><g><path d="M 13.375 0.3125 C 11.320312 0.3125 9.472656 -0.046875 7.828125 -0.765625 C 6.191406 -1.484375 4.898438 -2.503906 3.953125 -3.828125 C 3.015625 -5.148438 2.546875 -6.691406 2.546875 -8.453125 L 7.921875 -8.453125 C 8.035156 -7.128906 8.554688 -6.039062 9.484375 -5.1875 C 10.410156 -4.34375 11.707031 -3.921875 13.375 -3.921875 C 15.113281 -3.921875 16.460938 -4.335938 17.421875 -5.171875 C 18.390625 -6.003906 18.875 -7.082031 18.875 -8.40625 C 18.875 -9.4375 18.570312 -10.273438 17.96875 -10.921875 C 17.375 -11.566406 16.628906 -12.0625 15.734375 -12.40625 C 14.835938 -12.757812 13.597656 -13.144531 12.015625 -13.5625 C 10.015625 -14.082031 8.390625 -14.613281 7.140625 -15.15625 C 5.898438 -15.707031 4.835938 -16.550781 3.953125 -17.6875 C 3.078125 -18.832031 2.640625 -20.359375 2.640625 -22.265625 C 2.640625 -24.023438 3.078125 -25.566406 3.953125 -26.890625 C 4.835938 -28.210938 6.070312 -29.222656 7.65625 -29.921875 C 9.238281 -30.628906 11.070312 -30.984375 13.15625 -30.984375 C 16.125 -30.984375 18.550781 -30.242188 20.4375 -28.765625 C 22.332031 -27.285156 23.382812 -25.253906 23.59375 -22.671875 L 18.046875 -22.671875 C 17.960938 -23.785156 17.4375 -24.738281 16.46875 -25.53125 C 15.5 -26.320312 14.21875 -26.71875 12.625 -26.71875 C 11.1875 -26.71875 10.015625 -26.347656 9.109375 -25.609375 C 8.203125 -24.878906 7.75 -23.828125 7.75 -22.453125 C 7.75 -21.515625 8.035156 -20.742188 8.609375 -20.140625 C 9.179688 -19.535156 9.90625 -19.054688 10.78125 -18.703125 C 11.664062 -18.347656 12.867188 -17.96875 14.390625 -17.5625 C 16.421875 -17 18.070312 -16.4375 19.34375 -15.875 C 20.625 -15.320312 21.707031 -14.46875 22.59375 -13.3125 C 23.488281 -12.15625 23.9375 -10.609375 23.9375 -8.671875 C 23.9375 -7.117188 23.519531 -5.648438 22.6875 -4.265625 C 21.851562 -2.890625 20.632812 -1.78125 19.03125 -0.9375 C 17.4375 -0.101562 15.550781 0.3125 13.375 0.3125 Z M 13.375 0.3125 "/></g></g></g><g fill="#ffffff" fill-opacity="1"><g transform="translate(291.570403, 310.081943)"><g><path d="M 27.734375 -30.59375 L 27.734375 0 L 22.71875 0 L 22.71875 -13.375 L 8.3125 -13.375 L 8.3125 0 L 3.296875 0 L 3.296875 -30.59375 L 8.3125 -30.59375 L 8.3125 -17.46875 L 22.71875 -17.46875 L 22.71875 -30.59375 Z M 27.734375 -30.59375 "/></g></g></g><g fill="#ffffff" fill-opacity="1"><g transform="translate(322.601377, 310.081943)"><g><path d="M 21.75 -6.25 L 8.9375 -6.25 L 6.734375 0 L 1.5 0 L 12.453125 -30.640625 L 18.265625 -30.640625 L 29.21875 0 L 23.9375 0 Z M 20.328125 -10.34375 L 15.359375 -24.5625 L 10.34375 -10.34375 Z M 20.328125 -10.34375 "/></g></g></g><g fill="#ffffff" fill-opacity="1"><g transform="translate(353.280238, 310.081943)"><g><path d="M 8.3125 -4.046875 L 18.65625 -4.046875 L 18.65625 0 L 3.296875 0 L 3.296875 -30.59375 L 8.3125 -30.59375 Z M 8.3125 -4.046875 "/></g></g></g></svg>